<svg width="32" height="32" viewBox="0 0 32 32" fill="none" xmlns="http://www.w3.org/2000/svg">
<g filter="url(#filter0_d_6_922)">
<path d="M21 2H11C8.23858 2 6 4.23858 6 7V17C6 19.7614 8.23858 22 11 22H21C23.7614 22 26 19.7614 26 17V7C26 4.23858 23.7614 2 21 2Z" stroke="#678398" stroke-width="2" stroke-linecap="round" stroke-linejoin="round"/>
<path d="M19.9997 11.3701C20.1231 12.2023 19.981 13.0523 19.5935 13.7991C19.206 14.5459 18.5929 15.1515 17.8413 15.5297C17.0898 15.908 16.2382 16.0397 15.4075 15.906C14.5768 15.7723 13.8095 15.3801 13.2145 14.7852C12.6196 14.1903 12.2274 13.4229 12.0938 12.5923C11.9601 11.7616 12.0918 10.91 12.47 10.1584C12.8483 9.40691 13.4539 8.7938 14.2007 8.4063C14.9475 8.0188 15.7975 7.87665 16.6297 8.00006C17.4786 8.12594 18.2646 8.52152 18.8714 9.12836C19.4782 9.73521 19.8738 10.5211 19.9997 11.3701Z" stroke="#678398" stroke-width="2" stroke-linecap="round" stroke-linejoin="round"/>
<path d="M21.5 6.5H21.51" stroke="#678398" stroke-width="2" stroke-linecap="round" stroke-linejoin="round"/>
</g>
<defs>
<filter id="filter0_d_6_922" x="0" y="0" width="32" height="32" filterUnits="userSpaceOnUse" color-interpolation-filters="sRGB">
<feFlood flood-opacity="0" result="BackgroundImageFix"/>
<feColorMatrix in="SourceAlpha" type="matrix" values="0 0 0 0 0 0 0 0 0 0 0 0 0 0 0 0 0 0 127 0" result="hardAlpha"/>
<feOffset dy="4"/>
<feGaussianBlur stdDeviation="2"/>
<feComposite in2="hardAlpha" operator="out"/>
<feColorMatrix type="matrix" values="0 0 0 0 0 0 0 0 0 0 0 0 0 0 0 0 0 0 0.25 0"/>
<feBlend mode="normal" in2="BackgroundImageFix" result="effect1_dropShadow_6_922"/>
<feBlend mode="normal" in="SourceGraphic" in2="effect1_dropShadow_6_922" result="shape"/>
</filter>
</defs>
</svg>
